# xmcd
#
# Track frame offsets:
#	150
#	12200
#	26191
#	44054
#	55244
#	68664
#	81761
#	95295
#	108133
#	123611
#	136599
#	147626
#
# Disc length: 2096 seconds
# Revision: 0
# Processed by: cddbd v1.5.2PL0 Copyright (c) Steve Scherf et al.
# Submitted via: dBpowerAMP V12.0
#
DISCID=a3082e0c
DTITLE=Jamie Harper - Old Pal
DYEAR=2015
DGENRE=Country
TTITLE0=Booth Shot Lincoln
TTITLE1=To Fly
TTITLE2=A Piece At A Time
TTITLE3=Enough On My Mind
TTITLE4=Old Joe Clark
TTITLE5=Goodbye Little Darlin'
TTITLE6=Till It Was Gone
TTITLE7=Her Memories Bound To Ride
TTITLE8=Remember The Cross
TTITLE9=This Heart of Mine
TTITLE10=Goodbye Old Pal
TTITLE11=Cotton Eyed Joe
EXTD=
EXTT0=
EXTT1=
EXTT2=
EXTT3=
EXTT4=
EXTT5=
EXTT6=
EXTT7=
EXTT8=
EXTT9=
EXTT10=
EXTT11=
PLAYORDER=
